<svg width="16" height="20" viewBox="0 0 16 20" fill="none" xmlns="http://www.w3.org/2000/svg">
<path d="M6 1V5C6 5.26522 5.89464 5.51957 5.7071 5.70711C5.51957 5.89464 5.26521 6 5 6H0.999998M15 18C15.0081 18.2561 14.9145 18.505 14.7397 18.6924C14.5649 18.8798 14.3231 18.9904 14.067 19H1.933C1.67693 18.9904 1.43508 18.8798 1.26027 18.6924C1.08546 18.505 0.991891 18.2561 0.999998 18V5.828C1.00011 5.29761 1.2109 4.78899 1.586 4.414L4.414 1.586C4.78898 1.2109 5.29761 1.00011 5.828 1H14.067C14.3231 1.00965 14.5649 1.12023 14.7397 1.30759C14.9145 1.49495 15.0081 1.74388 15 2V18ZM11.045 7.514C11.045 7.64661 10.9923 7.77379 10.8986 7.86755C10.8048 7.96132 10.6776 8.014 10.545 8.014C10.4124 8.014 10.2852 7.96132 10.1914 7.86755C10.0977 7.77379 10.045 7.64661 10.045 7.514C10.045 7.38139 10.0977 7.25421 10.1914 7.16045C10.2852 7.06668 10.4124 7.014 10.545 7.014C10.6776 7.014 10.8048 7.06668 10.8986 7.16045C10.9923 7.25421 11.045 7.38139 11.045 7.514ZM3.857 15.92L6.473 10.587L8.385 15.267L9.995 12.55L11.805 15.92H3.857Z" stroke="#283C45" stroke-width="1.5" stroke-linecap="round" stroke-linejoin="round"/>
</svg>
