<svg width="137" height="168" viewBox="0 0 137 168" fill="none" xmlns="http://www.w3.org/2000/svg">
<g clip-path="url(#clip0_53_416)">
<path d="M13.5955 155.646H18.0806C19.7385 155.646 20.9472 155.977 21.7137 156.643C22.4803 157.308 22.8618 158.368 22.8618 159.818V163.396C22.8618 164.85 22.4767 165.91 21.7066 166.572C20.9365 167.237 19.7278 167.568 18.0842 167.568H13.599V155.643L13.5955 155.646ZM15.0287 166.279H17.6849C18.9042 166.279 19.7706 166.061 20.2805 165.625C20.7903 165.188 21.047 164.452 21.047 163.417V159.804C21.047 158.769 20.7903 158.037 20.2805 157.597C19.767 157.16 18.9042 156.942 17.6849 156.942H15.0287L15.4245 155.952V167.283L15.0287 166.276V166.279Z" fill="#283C45"/>
<path d="M27.3469 155.002V157.181H25.3468V155.002H27.3469ZM27.2614 158.375V167.575H25.4324V158.375H27.2614Z" fill="#283C45"/>
<path d="M28.848 158.375H30.6591L33.4365 166.586H33.49L36.2674 158.375H38.0608L35.0766 167.575H31.85L28.848 158.375Z" fill="#283C45"/>
<path d="M43.858 167.709C42.8918 167.709 42.0611 167.554 41.3658 167.241C40.6706 166.927 40.1394 166.473 39.7686 165.878C39.4013 165.283 39.2159 164.568 39.2159 163.741V162.206C39.2159 161.378 39.4013 160.667 39.7757 160.075C40.1501 159.484 40.6849 159.03 41.3801 158.713C42.0753 158.396 42.9025 158.238 43.8544 158.238C44.8064 158.238 45.6549 158.392 46.3573 158.706C47.0597 159.019 47.5945 159.473 47.9617 160.068C48.3289 160.664 48.5143 161.378 48.5143 162.206V163.741C48.5143 164.572 48.3289 165.283 47.9617 165.878C47.5945 166.473 47.0597 166.927 46.3573 167.241C45.6549 167.554 44.8206 167.709 43.8544 167.709H43.858ZM43.858 166.279C44.7315 166.279 45.4267 166.051 45.9366 165.589C46.4464 165.128 46.7031 164.508 46.7031 163.723V162.223C46.7031 161.428 46.4464 160.804 45.9366 160.35C45.4232 159.896 44.7315 159.667 43.858 159.667C42.9845 159.667 42.3071 159.896 41.7972 160.357C41.2874 160.818 41.0307 161.438 41.0307 162.223V163.723C41.0307 164.508 41.2874 165.128 41.7972 165.589C42.3071 166.051 42.9952 166.279 43.858 166.279ZM45.9972 155.291L42.2358 157.66L41.701 156.91L45.031 153.981L45.9972 155.294V155.291Z" fill="#283C45"/>
<path d="M50.9815 158.375H52.2936L52.8105 161.801V167.575H50.9815V158.375ZM52.2757 162.6C52.2757 161.171 52.5538 160.086 53.1136 159.347C53.6698 158.607 54.4791 158.238 55.538 158.238C55.7234 158.238 55.9124 158.248 56.1085 158.273C56.3046 158.297 56.4935 158.329 56.6789 158.375L56.5755 159.924C56.219 159.833 55.8411 159.787 55.4382 159.787C54.5754 159.787 53.9229 160.061 53.4808 160.614C53.0387 161.167 52.8177 161.998 52.8177 163.111L52.2829 162.6H52.2757Z" fill="#283C45"/>
<path d="M61.9735 167.709C61.0429 167.709 60.2407 167.554 59.574 167.241C58.9073 166.927 58.3939 166.473 58.0373 165.878C57.6808 165.283 57.5025 164.568 57.5025 163.741V162.206C57.5025 161.389 57.6844 160.681 58.0445 160.086C58.4081 159.491 58.9215 159.033 59.5882 158.713C60.255 158.396 61.05 158.238 61.9699 158.238C63.2926 158.238 64.3587 158.537 65.1716 159.132C65.9809 159.727 66.4408 160.544 66.5442 161.575L64.7687 161.713C64.6296 161.009 64.3373 160.48 63.888 160.128C63.4388 159.776 62.8256 159.6 62.0412 159.6C61.1998 159.6 60.5366 159.833 60.0482 160.297C59.5597 160.762 59.3137 161.392 59.3137 162.188V163.755C59.3137 164.561 59.5562 165.195 60.0375 165.656C60.5224 166.117 61.1891 166.346 62.0376 166.346C62.8077 166.346 63.421 166.167 63.8738 165.811C64.3266 165.452 64.6261 164.927 64.7615 164.234L66.5371 164.371C66.4337 165.392 65.9738 166.205 65.1573 166.808C64.3408 167.41 63.2784 167.709 61.9663 167.709H61.9735Z" fill="#283C45"/>
<path d="M70.4946 155.002V157.181H68.4944V155.002H70.4946ZM70.409 158.375V167.575H68.58V158.375H70.409Z" fill="#283C45"/>
<path d="M77.5005 167.709C76.5343 167.709 75.7036 167.554 75.0083 167.241C74.3131 166.927 73.7818 166.473 73.411 165.878C73.0438 165.283 72.8584 164.568 72.8584 163.741V162.206C72.8584 161.378 73.0438 160.667 73.4182 160.075C73.7925 159.484 74.3273 159.03 75.0226 158.713C75.7178 158.396 76.545 158.238 77.4969 158.238C78.4489 158.238 79.2974 158.392 79.9998 158.706C80.7021 159.019 81.2369 159.473 81.6042 160.068C81.9714 160.663 82.1568 161.378 82.1568 162.206V163.741C82.1568 164.572 81.9714 165.283 81.6042 165.878C81.2369 166.473 80.7021 166.927 79.9998 167.241C79.2974 167.554 78.4631 167.709 77.4969 167.709H77.5005ZM77.5005 166.279C78.374 166.279 79.0692 166.051 79.5791 165.589C80.0889 165.128 80.3456 164.508 80.3456 163.723V162.223C80.3456 161.428 80.0889 160.804 79.5791 160.35C79.0657 159.896 78.374 159.667 77.5005 159.667C76.627 159.667 75.9496 159.896 75.4397 160.357C74.9299 160.818 74.6732 161.438 74.6732 162.223V163.723C74.6732 164.508 74.9299 165.128 75.4397 165.589C75.9496 166.051 76.6377 166.279 77.5005 166.279Z" fill="#283C45"/>
<path d="M86.0893 155.646L87.8328 164.625H87.9361L90.1609 155.646H93.0239L95.2308 164.625H95.3342L97.0777 155.646H99.8194L97.4734 167.572H93.6442L91.6084 159.375H91.5728L89.537 167.572H85.69L83.344 155.646H86.0893Z" fill="#FFCC32"/>
<path d="M105.535 167.744C104.522 167.744 103.656 167.579 102.939 167.251C102.219 166.92 101.67 166.445 101.292 165.818C100.914 165.195 100.721 164.438 100.721 163.551V162.392C100.721 161.519 100.921 160.769 101.324 160.142C101.727 159.519 102.308 159.037 103.067 158.702C103.827 158.368 104.722 158.199 105.759 158.199C107.371 158.199 108.604 158.604 109.46 159.41C110.316 160.216 110.747 161.364 110.747 162.85V163.635H102.95V162.308H108.608L108.23 162.818V162.273C108.23 161.589 108.016 161.058 107.592 160.671C107.168 160.283 106.579 160.09 105.831 160.09C105.082 160.09 104.501 160.287 104.08 160.678C103.659 161.068 103.449 161.611 103.449 162.304V163.836C103.449 164.529 103.656 165.065 104.069 165.445C104.483 165.825 105.053 166.015 105.777 166.015C106.408 166.015 106.922 165.892 107.314 165.642C107.706 165.392 107.952 165.047 108.055 164.603L110.626 164.772C110.362 165.727 109.785 166.459 108.9 166.97C108.016 167.48 106.893 167.737 105.535 167.737V167.744Z" fill="#FFCC32"/>
<path d="M112.765 154.967H115.493V164.882L114.491 167.575H112.765V154.967ZM119.012 167.744C118.067 167.744 117.247 167.561 116.544 167.198C115.842 166.836 115.304 166.318 114.922 165.649C114.544 164.98 114.348 164.195 114.337 163.297V162.6C114.348 161.702 114.544 160.924 114.922 160.266C115.304 159.607 115.835 159.097 116.519 158.741C117.204 158.382 118.006 158.206 118.926 158.206C120.259 158.206 121.29 158.569 122.014 159.297C122.737 160.026 123.101 161.065 123.101 162.417V163.54C123.101 164.892 122.744 165.931 122.031 166.66C121.318 167.389 120.313 167.751 119.012 167.751V167.744ZM118.217 165.818C118.894 165.818 119.425 165.607 119.803 165.188C120.181 164.769 120.374 164.188 120.374 163.449V162.544C120.374 161.794 120.185 161.209 119.803 160.79C119.422 160.371 118.894 160.16 118.217 160.16C117.364 160.16 116.698 160.392 116.216 160.857C115.731 161.322 115.493 161.966 115.493 162.783V163.142C115.493 163.97 115.735 164.625 116.216 165.1C116.698 165.579 117.368 165.815 118.217 165.815V165.818Z" fill="#FFCC32"/>
<path d="M6.88558 78.0447C1.57358 80.7828 -2.70211 73.0258 3.18983 70.1758C8.90676 67.4071 40.7479 51.849 42.6009 50.9442L37.4983 32.9224C34.53 31.9804 32.5054 30.4045 31.8911 28.2696L29.1253 19.5739C27.3066 13.2266 36.1016 5.20864 48.7674 1.66731C60.9528 -1.73507 72.2837 0.240618 74.7475 6.04568L77.7673 15.4497C78.4364 17.788 77.3006 20.4312 74.847 22.9796C76.5731 28.5949 85.5705 57.7693 85.574 57.7863C85.5877 57.8303 85.5911 57.8744 85.598 57.9184C89.6026 57.7456 92.2071 58.2573 92.5674 59.5112L95.4122 70.2063C95.9647 72.1345 85.4402 76.7671 71.8993 80.549C58.362 84.3309 46.9384 85.8356 46.3859 83.9039L43.5412 73.2122C43.2118 72.0702 44.7937 70.4943 47.7139 68.7694C47.6384 68.6576 47.5767 68.5424 47.5389 68.4136L44.7182 58.4539C41.5955 60.0703 11.9093 75.4522 6.87529 78.0447H6.88558ZM136.656 71.7584C136.656 56.1054 130.983 40.9438 120.685 29.0694C110.501 17.3271 96.4279 9.48194 81.0615 6.98099C80.2654 6.85222 79.5173 7.38426 79.3835 8.16708C79.2531 8.95329 79.7919 9.69205 80.5845 9.82421C95.2715 12.2133 108.727 19.7128 118.465 30.9434C128.31 42.2959 133.732 56.7899 133.732 71.755C133.732 91.4407 124.505 109.035 110.103 120.554C108.102 117.175 100.117 114.322 89.0982 112.777C78.2511 111.428 67.9188 111.126 57.3428 112.085C43.2049 113.336 32.5534 116.593 30.2303 120.578C29.7499 120.195 29.2695 119.805 28.7993 119.405C17.4204 109.761 9.83327 96.4426 7.44149 81.9079C7.31109 81.1217 6.56302 80.5897 5.76691 80.7184C4.97079 80.8472 4.43204 81.586 4.56244 82.3722C7.06746 97.5778 14.9977 111.506 26.9017 121.594C27.8316 122.384 28.7856 123.14 29.7533 123.875V131.144C29.7533 137.674 47.8512 142.964 70.1767 142.964C92.5022 142.964 110.6 137.674 110.6 131.144V123.838C126.43 111.828 136.656 92.9487 136.656 71.755V71.7584ZM6.50469 64.8791C8.23761 49.0499 15.9208 34.5457 28.1405 24.0403C28.5454 23.6913 28.5866 23.0847 28.2366 22.6848C27.8865 22.2849 27.2689 22.2443 26.8639 22.5899C14.2737 33.4138 6.35713 48.3585 4.57273 64.6723C4.5144 65.201 4.90216 65.6721 5.43405 65.7297C5.46836 65.7331 5.50611 65.7364 5.54043 65.7364C6.03113 65.7364 6.45321 65.3704 6.50469 64.8791Z" fill="#283C45"/>
<path d="M6.62481 77.6413C1.51183 80.2744 -1.74469 72.941 3.92419 70.1961C6.07233 69.1557 12.0501 66.2413 18.6489 63.0219C3.72173 71.7719 7.91849 76.7094 6.62481 77.6447V77.6413ZM94.5337 70.5451C93.971 68.8372 82.9489 70.3621 69.9228 73.9543C56.8967 77.5464 46.7909 81.8435 47.3536 83.5514C47.9164 85.2628 58.9385 83.7344 71.9646 80.1423C84.9941 76.5501 95.0965 72.2531 94.5337 70.5451ZM70.1802 112.001C48.2287 112.001 30.4362 116.582 30.4362 122.231C30.4362 123.675 31.5926 125.048 33.6858 126.288C39.7905 129.924 53.8324 133.157 70.1802 133.157C86.528 133.157 100.573 129.924 106.674 126.288C108.768 125.044 109.924 123.675 109.924 122.231C109.924 116.579 92.1317 112.001 70.1802 112.001ZM75.0152 7.28593L74.6652 6.19473C72.2013 0.389675 61.0969 -1.51146 48.9115 1.89092C36.2458 5.43225 27.5777 13.3553 29.3964 19.7026C29.3964 19.7026 31.874 25.223 32.6941 23.6709C34.0873 21.0039 36.987 18.3674 41.1082 16.0189C44.176 14.2703 47.8512 12.7352 51.9038 11.6033C55.38 10.6307 58.7806 10.0546 61.9102 9.85127C67.1124 9.509 71.3572 10.1122 74.25 11.6812C75.8285 12.5386 76.9368 13.6637 77.4413 15.0328L75.0152 7.28593ZM92.2415 59.8026C91.4659 57.1084 79.9326 57.8777 66.6937 61.5749C55.6922 64.6486 46.8526 68.7491 44.6221 71.5957C44.5501 71.6872 44.6084 71.7685 44.7079 71.7685C48.5684 68.6643 62.7955 61.9409 78.059 59.8229C89.16 58.2844 89.3281 68.9253 93.1405 69.2913C94.0087 69.376 94.6229 69.5556 94.9592 69.8436L92.238 59.8026H92.2415ZM99.8972 129.856C91.8537 132.022 79.0369 133.862 70.2316 133.56C70.1836 133.726 71.9474 133.869 72.3866 133.906C78.4021 134.418 94.5166 132.293 103.119 129.287C107.471 127.765 107.632 134.394 108.771 133.875C109.91 133.357 110.302 132.123 110.302 131.158V124.007C110.302 124.739 107.615 127.779 99.8972 129.86V129.856Z" fill="#354A55"/>
<path d="M55.2633 91.8643C59.3159 91.5966 64.2779 91.722 69.6002 92.3116C80.9929 93.5723 90.3095 96.5409 92.4267 99.3671C92.763 99.8179 92.9174 100.265 92.8694 100.702C92.7459 101.797 91.3527 102.678 89.0364 103.305C88.9781 103.322 88.9197 103.339 88.8579 103.352C87.6569 103.664 86.2191 103.912 84.5891 104.081C80.6292 102.451 75.4372 101.16 69.686 100.523C65.0809 100.014 60.7331 99.9941 57.0099 100.38L56.7251 100.052L56.2996 99.4959L55.8741 99.3671L56.2104 98.6521L56.6153 98.1404L56.2344 97.7202L56.056 97.2762L55.7643 97.2525L55.0883 97.8083L54.7966 97.6524V97.1847L54.2578 96.9848L53.9662 96.3409C53.9662 96.3409 54.3265 95.7852 54.3917 95.7852C54.4569 95.7852 55.4486 95.5412 55.4486 95.5412L55.8089 94.7855L54.8858 94.4974C54.8858 94.4974 54.6387 94.0907 54.752 94.0399C54.8652 93.9891 55.2015 93.2978 55.2015 93.2978V92.542L54.8412 91.8541L55.2667 91.8609L55.2633 91.8643ZM49.8415 98.991L50.0233 98.4352L48.9904 98.6453V98.0455L49.313 97.5643V96.8425L48.7468 96.6629L48.3522 96.2799L47.1683 97.2017L46.681 96.6629L46.8629 96.1207L47.6522 94.8295L47.2884 94.2602L46.4992 94.1992L45.8918 93.779L46.1045 93.03L45.83 91.9795C45.83 91.9795 40.9366 94.6973 39.8557 97.527C41.8323 100.628 48.0777 99.9331 49.4434 99.845L49.8621 100.587L50.0199 100.028L50.6273 99.8179V99.218L49.838 98.991H49.8415Z" fill="#A88832"/>
<path d="M74.5691 22.0511C73.2514 17.4525 63.8558 16.0495 53.5818 18.9198C43.3078 21.7901 36.0502 27.846 37.3679 32.4446C37.4125 32.6039 47.5492 68.4136 47.5492 68.4136C46.8217 65.872 54.7451 61.4326 65.2456 58.4979C75.7495 55.5632 84.8534 55.2446 85.5809 57.7863C85.5809 57.7863 74.6686 22.3967 74.5691 22.0511Z" fill="#A88832"/>
<path d="M91.2635 79.5154L91.84 79.6205L91.7645 79.8747L92.4474 80.3084L92.8763 80.8032V81.5386L93.772 81.9452L93.8921 82.5451L93.6038 82.7687L93.4357 83.2635L92.9484 83.6396L93.0856 84.5411L93.4357 84.6326L93.5112 84.9342L93.3773 85.2832C90.1242 84.9511 85.399 85.6289 80.4061 87.3199C74.5108 89.3193 69.7924 92.2066 67.8021 94.7753C67.0026 94.7381 66.282 94.6533 65.6506 94.5144C64.1784 94.1958 63.2005 93.596 62.8951 92.7149C62.8401 92.559 62.8093 92.3998 62.799 92.2371V92.2269C62.6102 89.2346 69.2502 84.5885 78.2443 81.5386C83.2612 79.8408 88.007 78.9766 91.5209 78.9732L91.2635 79.5188V79.5154ZM97.7971 85.9339C99.0016 85.9576 103.236 85.8085 104.163 83.0093C103.538 81.0946 100.865 78.9868 99.2555 78.0887L98.8712 78.448L99.0119 78.9698L98.679 79.2308L99.0428 80.1322L98.679 80.9421L99.2247 82.1418L98.8712 82.6806L97.979 83.0093L97.8589 83.338L97.3133 83.5786L97.5878 84.5377C97.5878 84.5377 97.0113 84.9884 96.9187 85.0189C96.826 85.0494 97.5569 85.3781 97.5569 85.3781L97.8006 85.9305L97.7971 85.9339Z" fill="#A88832"/>
<path d="M55.0848 101.112C58.8595 102.173 63.2759 103.247 68.2962 103.803C74.5073 104.491 80.2276 104.545 84.5857 104.081C86.2157 103.912 89.0329 103.305 89.0329 103.305C91.3492 102.678 92.7424 101.797 92.866 100.702C92.914 100.265 92.7596 99.8179 92.4233 99.3672C95.3641 102.16 93.4493 109.09 92.9517 109.761C92.8111 110.076 92.612 110.377 92.3581 110.666C89.4928 113.976 79.8433 115.613 68.6908 114.38C60.3934 113.461 53.2661 111.181 49.313 108.483V107.927L50.1606 107.771L50.0919 106.86L51.015 106.816L51.7116 107.073L52.0479 106.66L52.3396 106.148L52.8783 105.992L52.3842 105.281L52.6313 104.074C52.6313 104.074 52.3842 103.396 52.4974 103.396C52.6107 103.396 53.3073 103.329 53.3073 103.329L53.8254 102.353L54.6559 102.509L54.8824 101.997L55.0848 101.109V101.112Z" fill="#FFCC32"/>
<path d="M93.8199 86.3574C91.0404 88.4348 86.8471 90.563 81.9606 92.2201C77.3246 93.7925 72.9185 94.6499 69.5041 94.7719C68.9036 94.7922 68.334 94.7922 67.8021 94.7719C67.0025 94.7346 66.2819 94.6499 65.6505 94.511C64.1784 94.1924 63.2004 93.5926 62.895 92.7115C62.8401 92.5556 62.8092 92.3963 62.7989 92.2337C62.6102 93.5146 63.897 99.7128 68.4918 101.102C68.4952 101.102 68.5021 101.106 68.5055 101.106C68.5124 101.106 68.5158 101.106 68.5227 101.112C71.563 102.329 78.004 101.743 84.9666 99.3841C91.7267 97.0932 97.0593 93.7823 98.8711 91.0272L98.3461 90.9188V90.6036L97.828 90.6172L97.677 90.258L97.7833 89.5666L97.7525 89.265L97.2961 89.2041L97.4127 88.8753L96.2151 88.7567L96.1088 87.7062L95.196 87.4825L94.5577 87.452L94.7705 86.8691L94.194 86.6692L94.1013 86.1744L93.8165 86.3541L93.8199 86.3574Z" fill="#FFCC32"/>
<path d="M49.4468 99.8484C48.0776 99.9399 41.8322 100.631 39.8591 97.5304C38.6752 101.078 40.161 104.095 40.7272 105.25C42.0346 107.921 46.1971 109.933 46.1971 109.933L46.5917 109.395L46.6535 108.436L47.23 108.107L48.081 107.836L48.781 107.416L48.4482 106.694L48.7227 105.972L47.6898 104.982L47.1716 104.084L48.63 102.82L49.1173 101.38L50.0301 100.868L49.4536 99.8484H49.4468Z" fill="#FFCC32"/>
<path d="M74.2773 22.4713C73.4298 19.5366 69.1644 17.9438 63.4852 17.9913C60.5306 18.015 57.1918 18.4826 53.7534 19.4349C51.4234 20.0788 49.3644 20.8175 47.4188 21.7393C47.3879 21.78 47.4256 21.7901 47.484 21.7766C74.7337 16.4731 78.4089 55.0582 82.7635 55.6072C84.0812 55.7733 84.5822 56.0817 85.0077 56.7188C85.0077 56.7188 74.3803 22.8102 74.2808 22.4713H74.2773Z" fill="#FFCC32"/>
<path d="M99.8045 93.186C101.781 92.6471 105.549 87.7842 104.166 83.0127C103.116 86.1779 97.8314 85.9542 97.4951 85.9237L97.3132 86.3439L97.6186 87.0657C97.6186 87.0657 97.6495 87.5469 97.7387 87.5774C97.828 87.6079 98.4388 88.1027 98.4388 88.1027L98.377 89.0787L98.5589 90.0377L99.228 90.3393L99.3481 90.8782L98.8711 91.539V92.62L99.3481 92.559L99.8045 93.1893V93.186Z" fill="#FFCC32"/>
</g>
<defs>
<clipPath id="clip0_53_416">
<rect width="137" height="168" fill="white"/>
</clipPath>
</defs>
</svg>
